<?xml version="1.0" encoding="utf-8"?>
<!-- Generator: Adobe Illustrator 24.1.2, SVG Export Plug-In . SVG Version: 6.00 Build 0)  -->
<svg version="1.1" id="Layer_1" xmlns="http://www.w3.org/2000/svg" xmlns:xlink="http://www.w3.org/1999/xlink" x="0px" y="0px"
	 viewBox="0 0 841.89 595.28" style="enable-background:new 0 0 841.89 595.28;" xml:space="preserve">
<style type="text/css">
	.st0{fill:#E96D00;}
</style>
<g>
	<path class="st0" d="M326.24,448.25c-4.65-3.58-1.53-7.28-0.48-10.48c6.14-18.83,14.01-36.98,22.08-55.05
		c4.08-9.13,7.16-18.63,9.16-28.42c3.69-18.13,11.95-33.82,24.13-47.69c10.33-11.76,22.31-21.69,33.94-32.02
		c10.75-9.55,21.48-19.11,32.35-28.51c11.31-9.78,22.17-20,31.98-31.3c5.5-6.34,10.69-12.93,13.67-20.95
		c0.98-2.63,1.37-5.24,0.23-7.92c-0.9-2.13-1.68-2.29-3.16-0.54c-1.96,2.32-3.94,4.63-5.79,7.02c-5.74,7.41-13.41,12.44-21.18,17.37
		c-19.15,12.16-40.23,20.05-61.32,27.91c-14.97,5.58-29.94,11.16-43.73,19.36c-9.65,5.74-18.83,12.07-25.48,21.42
		c-3.98,5.6-5.99,11.92-7.21,18.58c-0.35,1.92-0.92,3.81-1.49,6.09c-1.34-0.79-2.26-1.33-2.84-1.67c0.73-4.55,1.37-8.78,2.08-12.99
		c2.04-11.96,8.43-21.39,17.3-29.32c12.33-11.03,26.86-18.2,42.17-24.07c8.78-3.37,17.4-7.17,26.07-10.82
		c1.04-0.44,1.97-1.16,3.26-1.93c-2.53-2.17-4.78-3.51-7.88-2.56c-7.02,2.15-14,4.42-21.1,6.27c-8.41,2.19-16.92,4.03-25.41,5.93
		c-9.5,2.12-19.03,4.09-28.52,6.22c-14.27,3.19-28.38,6.97-42.08,12.09c-16.79,6.28-32.05,15.15-44.8,27.9
		c-8.51,8.51-13.17,18.93-13.95,30.96c-0.61,9.47-1.02,18.95-1.52,28.43c-3.35-0.23-6.4-3.37-6.09-6.83
		c0.58-6.59,1.08-13.23,2.36-19.7c1.22-6.15,2.93-12.29,5.23-18.11c6.79-17.12,18.42-30.16,34.27-39.64
		c14.85-8.88,30.72-15.31,47.36-19.71c16.57-4.39,33.34-8.05,50.03-12.01c14.28-3.39,28.58-6.69,42.85-10.15
		c14.07-3.41,27.71-8.15,40.94-14c10.6-4.69,20.86-10.07,29.85-17.53c3.95-3.28,7.44-7.02,9.51-11.83c0.34-0.79,0.24-1.77,0.34-2.66
		c-0.81,0.12-1.65,0.17-2.44,0.36c-7.99,1.95-15.94,4.03-23.96,5.85c-11.43,2.59-22.84,5.41-34.38,7.37
		c-12.81,2.17-25.76,3.49-38.65,5.15c-7.52,0.96-15.07,1.69-22.57,2.82c-9.3,1.4-18.6,2.92-27.83,4.74
		c-14.5,2.86-28.78,6.48-42.32,12.63c-11.75,5.34-21.35,13.32-29.38,23.29c-1.48,1.84-2.33,4.18-3.61,6.2
		c-0.71,1.12-1.6,2.18-2.61,3.02c-0.58,0.48-1.79,0.87-2.32,0.58c-0.57-0.31-1.08-1.56-0.92-2.23c0.68-2.84,1.29-5.77,2.51-8.4
		c4.93-10.68,12.98-18.69,22.65-25.09c11.3-7.49,23.88-12.13,36.92-15.43c10.82-2.74,21.72-5.23,32.67-7.39
		c7.5-1.48,15.14-2.28,22.73-3.28c8.94-1.18,17.9-2.24,26.85-3.35c6.97-0.87,13.97-1.52,20.89-2.65c9.43-1.55,18.84-3.24,28.17-5.29
		c9.11-2,18.12-4.44,27.13-6.88c2.67-0.72,5.16-2.11,7.75-3.15c5.03-2.02,6.1-6.84,7.89-11.13c7.59-18.15,16.84-35.28,30.36-49.81
		c4.75-5.11,10.51-7.67,17.61-6.62c0.63,0.09,1.28,0.09,1.91,0.19c3.03,0.48,5.3-0.14,6.91-3.21c2.83-5.39,7.71-7.51,13.66-7.62
		c1.87-0.03,2.91,0.59,2.96,2.52c0.09,3.35,0.53,6.76,0.09,10.04c-0.27,1.95-1.78,3.83-3.02,5.53c-3.94,5.4-8.27,10.53-11.95,16.1
		c-3.7,5.58-5.04,12.12-5.03,18.72c0.01,9.5,0.62,19,0.78,28.5c0.1,5.75-0.1,11.5-0.31,17.25c-0.04,0.98-0.84,1.91-1.2,2.9
		c-0.45,1.23-1.06,2.47-1.15,3.73c-0.44,6.69-0.46,13.41-1.15,20.07c-1.53,14.89-6.31,28.76-13.79,41.73
		c-12.77,22.16-31.37,37.94-53.74,49.73c-15.46,8.15-31,16.19-46.18,24.84c-11.08,6.32-21.78,13.35-32.38,20.45
		c-10.89,7.3-19.28,17.17-26.81,27.78c-9.03,12.74-15.97,26.65-23.12,40.49c-5,9.67-7.21,20.08-10.55,30.2
		c-0.99,3.01-2.39,5.9-3.78,8.76C328.08,446.42,327.06,447.28,326.24,448.25z M538.1,96.69c-9.4-0.8-16.86,3.13-22.7,10.52
		c-9.33,11.8-16.83,24.69-21.7,38.9c-2.78,8.1-0.8,10.93,4.48,14.17c3.55,2.18,5.14,5.34,4.9,9.66c-0.4,7.21-1.45,14.29-3.79,21.12
		c-5.01,14.62-12.49,27.92-23.34,38.91c-10.54,10.66-21.64,20.78-32.82,30.78c-9.16,8.19-18.71,15.96-28.23,23.74
		c-12.9,10.54-25.3,21.57-35.23,35.04c-4.91,6.67-9.51,13.59-13.88,20.63c-2.38,3.85-4.08,8.18-4.09,12.87
		c0,1.15,0.77,2.29,1.18,3.44c1.29-0.5,2.6-0.95,3.87-1.51c0.32-0.14,0.49-0.61,0.75-0.92c2.81-3.26,5.45-6.69,8.46-9.76
		c12.77-12.99,26.88-24.45,42.68-33.44c19.9-11.32,40.18-22.01,60.56-32.46c24.54-12.59,40.79-32.06,49.59-57.92
		c2.1-6.17,3.23-12.66,4.96-18.96c2.52-9.12,4.32-18.36,4.38-27.83c0.12-16.3,0.04-32.6-0.06-48.9c-0.03-4.56,0.84-8.84,2.53-13.06
		c1.66-4.14,3.01-8.41,4.47-12.63c0.54-1.57,0.12-2.47-1.74-2.39C541.66,96.75,539.98,96.69,538.1,96.69z"/>
	<path class="st0" d="M328.54,510.01c1.12-11.19,2.07-22.4,3.41-33.56c1.07-8.86,2.05-17.79,4.11-26.45
		c2.28-9.58,5.03-19.19,8.88-28.23c4.39-10.3,9.93-20.17,15.55-29.89c4.58-7.92,11.1-14.38,18.05-20.31
		c2.01-1.71,5.66-2.13,6.7-1.05c0.98,1.02,0.62,4.5-1.14,6.44c-3.32,3.67-6.71,7.3-10.37,10.61
		c-13.02,11.74-21.12,26.49-26.62,42.85c-2.87,8.52-6.07,17-8.03,25.74c-1.75,7.8-2.58,15.93-2.79,23.94
		c-0.35,13.24,0.22,26.5,0.2,39.75c0,3.14-0.73,6.29-1.3,9.41c-0.13,0.72-1.01,1.31-1.54,1.96c-0.66-0.61-1.75-1.13-1.92-1.86
		c-0.97-4.09-1.87-8.2-2.49-12.35c-0.34-2.27-0.06-4.63-0.06-6.94C328.97,510.04,328.76,510.03,328.54,510.01z"/>
	<path class="st0" d="M524.21,125.26c-3.46-0.03-5.12-2.08-5.03-6.19c0.09-4.15,2.99-6.72,7.53-6.67c1.86,0.02,5.3,4.42,5.23,6.69
		C531.85,122.54,528.39,125.3,524.21,125.26z"/>
</g>
</svg>
