<?xml version="1.0" encoding="utf-8"?>
<!-- Generator: Adobe Illustrator 24.1.2, SVG Export Plug-In . SVG Version: 6.00 Build 0)  -->
<svg version="1.1" id="Layer_1" xmlns="http://www.w3.org/2000/svg" xmlns:xlink="http://www.w3.org/1999/xlink" x="0px" y="0px"
	 viewBox="0 0 841.89 595.28" style="enable-background:new 0 0 841.89 595.28;" xml:space="preserve">
<style type="text/css">
	.st0{fill:#E96D00;}
	.st1{fill:#FEEC9E;}
	.st2{font-family:'Roboto-Medium';}
	.st3{font-size:43px;}
</style>
<g>
	<path class="st0" d="M523.95,332.46c-2.14-1.65-0.7-3.35-0.22-4.82c2.82-8.66,6.44-17.02,10.16-25.33c1.88-4.2,3.3-8.57,4.21-13.08
		c1.7-8.34,5.5-15.56,11.1-21.95c4.75-5.41,10.27-9.98,15.62-14.73c4.94-4.39,9.88-8.79,14.89-13.12c5.2-4.5,10.2-9.2,14.71-14.4
		c2.53-2.92,4.92-5.95,6.29-9.64c0.45-1.21,0.63-2.41,0.1-3.65c-0.42-0.98-0.77-1.05-1.45-0.25c-0.9,1.07-1.81,2.13-2.66,3.23
		c-2.64,3.41-6.17,5.72-9.75,7.99c-8.81,5.59-18.51,9.22-28.22,12.84c-6.89,2.57-13.77,5.14-20.12,8.91
		c-4.44,2.64-8.66,5.55-11.72,9.86c-1.83,2.58-2.76,5.48-3.32,8.55c-0.16,0.89-0.42,1.75-0.68,2.8c-0.62-0.36-1.04-0.61-1.31-0.77
		c0.33-2.09,0.63-4.04,0.96-5.98c0.94-5.5,3.88-9.84,7.96-13.49c5.67-5.08,12.36-8.37,19.4-11.08c4.04-1.55,8.01-3.3,12-4.98
		c0.48-0.2,0.91-0.53,1.5-0.89c-1.16-1-2.2-1.62-3.62-1.18c-3.23,0.99-6.44,2.04-9.71,2.89c-3.87,1.01-7.79,1.85-11.69,2.73
		c-4.37,0.98-8.75,1.88-13.12,2.86c-6.56,1.47-13.06,3.21-19.36,5.56c-7.72,2.89-14.75,6.97-20.61,12.84
		c-3.92,3.92-6.06,8.71-6.42,14.25c-0.28,4.36-0.47,8.72-0.7,13.08c-1.54-0.11-2.94-1.55-2.8-3.14c0.27-3.03,0.5-6.09,1.09-9.06
		c0.56-2.83,1.35-5.65,2.41-8.33c3.13-7.88,8.48-13.88,15.77-18.24c6.83-4.09,14.14-7.04,21.79-9.07c7.63-2.02,15.34-3.7,23.02-5.53
		c6.57-1.56,13.15-3.08,19.72-4.67c6.47-1.57,12.75-3.75,18.84-6.44c4.88-2.16,9.6-4.63,13.73-8.07c1.82-1.51,3.42-3.23,4.38-5.44
		c0.16-0.36,0.11-0.81,0.16-1.22c-0.37,0.05-0.76,0.08-1.12,0.17c-3.68,0.9-7.34,1.85-11.02,2.69c-5.26,1.19-10.51,2.49-15.82,3.39
		c-5.89,1-11.85,1.61-17.78,2.37c-3.46,0.44-6.94,0.78-10.38,1.3c-4.28,0.65-8.56,1.34-12.8,2.18c-6.67,1.31-13.24,2.98-19.47,5.81
		c-5.41,2.46-9.83,6.13-13.52,10.72c-0.68,0.85-1.07,1.92-1.66,2.85c-0.33,0.51-0.74,1-1.2,1.39c-0.27,0.22-0.82,0.4-1.07,0.27
		c-0.26-0.14-0.5-0.72-0.42-1.03c0.31-1.31,0.6-2.66,1.15-3.87c2.27-4.92,5.97-8.6,10.42-11.55c5.2-3.44,10.99-5.58,16.99-7.1
		c4.98-1.26,9.99-2.4,15.03-3.4c3.45-0.68,6.97-1.05,10.46-1.51c4.11-0.54,8.24-1.03,12.35-1.54c3.21-0.4,6.43-0.7,9.61-1.22
		c4.34-0.71,8.67-1.49,12.96-2.43c4.19-0.92,8.34-2.04,12.48-3.17c1.23-0.33,2.37-0.97,3.57-1.45c2.31-0.93,2.81-3.15,3.63-5.12
		c3.49-8.35,7.75-16.23,13.97-22.92c2.19-2.35,4.84-3.53,8.1-3.05c0.29,0.04,0.59,0.04,0.88,0.09c1.39,0.22,2.44-0.07,3.18-1.48
		c1.3-2.48,3.55-3.46,6.28-3.51c0.86-0.02,1.34,0.27,1.36,1.16c0.04,1.54,0.24,3.11,0.04,4.62c-0.12,0.9-0.82,1.76-1.39,2.55
		c-1.81,2.49-3.81,4.85-5.5,7.41c-1.7,2.57-2.32,5.58-2.32,8.62c0,4.37,0.28,8.74,0.36,13.11c0.05,2.64-0.05,5.29-0.14,7.94
		c-0.02,0.45-0.39,0.88-0.55,1.33c-0.21,0.56-0.49,1.14-0.53,1.72c-0.2,3.08-0.21,6.17-0.53,9.24c-0.71,6.85-2.9,13.23-6.34,19.2
		c-5.87,10.19-14.43,17.46-24.73,22.88c-7.12,3.75-14.26,7.45-21.25,11.43c-5.1,2.91-10.02,6.14-14.9,9.41
		c-5.01,3.36-8.87,7.9-12.34,12.78c-4.16,5.86-7.35,12.26-10.64,18.63c-2.3,4.45-3.32,9.24-4.86,13.89
		c-0.46,1.38-1.1,2.71-1.74,4.03C524.8,331.62,524.32,332.01,523.95,332.46z M621.43,170.7c-4.32-0.37-7.76,1.44-10.45,4.84
		c-4.29,5.43-7.74,11.36-9.99,17.9c-1.28,3.73-0.37,5.03,2.06,6.52c1.63,1,2.37,2.46,2.26,4.44c-0.19,3.32-0.67,6.57-1.74,9.72
		c-2.3,6.73-5.75,12.85-10.74,17.9c-4.85,4.91-9.96,9.56-15.1,14.16c-4.21,3.77-8.61,7.34-12.99,10.92
		c-5.93,4.85-11.64,9.93-16.21,16.12c-2.26,3.07-4.38,6.25-6.38,9.49c-1.1,1.77-1.88,3.77-1.88,5.92c0,0.53,0.35,1.05,0.54,1.58
		c0.59-0.23,1.2-0.44,1.78-0.7c0.15-0.07,0.22-0.28,0.34-0.42c1.29-1.5,2.51-3.08,3.89-4.49c5.88-5.98,12.37-11.25,19.64-15.39
		c9.16-5.21,18.49-10.13,27.87-14.93c11.29-5.79,18.77-14.75,22.82-26.65c0.97-2.84,1.48-5.83,2.28-8.73
		c1.16-4.2,1.99-8.45,2.02-12.8c0.05-7.5,0.02-15-0.03-22.5c-0.01-2.1,0.38-4.07,1.16-6.01c0.76-1.91,1.38-3.87,2.06-5.81
		c0.25-0.72,0.05-1.14-0.8-1.1C623.07,170.73,622.29,170.7,621.43,170.7z"/>
	<path class="st0" d="M525.01,360.87c0.51-5.15,0.95-10.31,1.57-15.44c0.49-4.08,0.94-8.19,1.89-12.17
		c1.05-4.41,2.31-8.83,4.09-12.99c2.02-4.74,4.57-9.28,7.15-13.75c2.11-3.64,5.11-6.61,8.31-9.34c0.92-0.79,2.6-0.98,3.08-0.48
		c0.45,0.47,0.29,2.07-0.52,2.96c-1.53,1.69-3.09,3.36-4.77,4.88c-5.99,5.4-9.72,12.19-12.25,19.72c-1.32,3.92-2.79,7.82-3.69,11.84
		c-0.81,3.59-1.19,7.33-1.28,11.02c-0.16,6.09,0.1,12.19,0.09,18.29c0,1.44-0.34,2.9-0.6,4.33c-0.06,0.33-0.46,0.6-0.71,0.9
		c-0.31-0.28-0.8-0.52-0.88-0.85c-0.45-1.88-0.86-3.77-1.14-5.68c-0.15-1.04-0.03-2.13-0.03-3.19
		C525.21,360.89,525.11,360.88,525.01,360.87z"/>
	<path class="st0" d="M615.04,183.84c-1.59-0.02-2.35-0.96-2.31-2.85c0.04-1.91,1.38-3.09,3.46-3.07c0.85,0.01,2.44,2.03,2.41,3.08
		C618.55,182.59,616.96,183.86,615.04,183.84z"/>
</g>
<text transform="matrix(0.9585 0 0 1 194.8741 354.51)" class="st1 st2 st3">BULKCOM SHIPPING</text>
</svg>
